<svg xmlns="http://www.w3.org/2000/svg" width="512" height="512" viewBox="0 0 512 512">
  <defs>
    <linearGradient id="g" x1="80" y1="120" x2="440" y2="420" gradientUnits="userSpaceOnUse">
      <stop offset="0" stop-color="#3B82F6"/>
      <stop offset="0.5" stop-color="#8B5CF6"/>
      <stop offset="1" stop-color="#14B8A6"/>
    </linearGradient>
    <radialGradient id="bg" cx="35%" cy="20%" r="85%">
      <stop offset="0" stop-color="#FFFFFF" stop-opacity="0.95"/>
      <stop offset="1" stop-color="#F7FAFF" stop-opacity="1"/>
    </radialGradient>
    <filter id="soft" x="-20%" y="-20%" width="140%" height="140%">
      <feGaussianBlur stdDeviation="3" result="b"/>
      <feColorMatrix in="b" type="matrix"
        values="1 0 0 0 0
                0 1 0 0 0
                0 0 1 0 0
                0 0 0 0.35 0" result="a"/>
      <feMerge>
        <feMergeNode in="a"/>
        <feMergeNode in="SourceGraphic"/>
      </feMerge>
    </filter>
  </defs>

  <rect x="36" y="36" width="440" height="440" rx="120" fill="url(#bg)"/>
  <rect x="36" y="36" width="440" height="440" rx="120" fill="none" stroke="#E6ECF7" stroke-width="10"/>

  <!-- wuug mark: soft ribbon w -->
  <path
    d="M142 214
       C152 176 178 156 210 156
       C248 156 258 188 268 222
       C278 258 288 300 320 300
       C350 300 370 276 382 242
       C392 214 410 196 438 196"
    fill="none"
    stroke="url(#g)"
    stroke-width="44"
    stroke-linecap="round"
    stroke-linejoin="round"
    filter="url(#soft)"
  />

  <path
    d="M142 214
       C152 252 176 276 206 276
       C236 276 254 252 268 222
       C282 190 296 156 336 156
       C374 156 402 186 410 226"
    fill="none"
    stroke="url(#g)"
    stroke-width="44"
    stroke-linecap="round"
    stroke-linejoin="round"
    filter="url(#soft)"
    opacity="0.98"
  />
</svg>

